<svg width="1440" height="2000" xmlns="http://www.w3.org/2000/svg" viewBox="0 0 1440 2000">
    <!-- Navigation -->
    <rect x="0" y="0" width="1440" height="64" fill="#f0f0f0" />
    <rect x="32" y="16" width="100" height="32" fill="#ccc" />
    <rect x="1200" y="16" width="60" height="32" fill="#ccc" />
    <rect x="1280" y="16" width="80" height="32" fill="#ccc" />
    <rect x="1380" y="16" width="60" height="32" fill="#ccc" />

    <!-- Featured Post -->
    <rect x="120" y="100" width="1200" height="200" fill="#e0e0e0" />
    <rect x="140" y="120" width="300" height="160" fill="#ccc" />
    <rect x="460" y="120" width="600" height="40" fill="#aaa" />
    <rect x="460" y="180" width="800" height="20" fill="#aaa" />
    <rect x="460" y="220" width="400" height="20" fill="#aaa" />

    <!-- Blog Grid -->
    <rect x="120" y="350" width="1200" height="600" fill="#f0f0f0" />
    <rect x="140" y="370" width="350" height="250" fill="#ccc" />
    <rect x="140" y="640" width="350" height="50" fill="#aaa" />
    <rect x="140" y="710" width="350" height="20" fill="#aaa" />
    <rect x="140" y="740" width="100" height="20" fill="#aaa" />

    <rect x="520" y="370" width="350" height="250" fill="#ccc" />
    <rect x="520" y="640" width="350" height="50" fill="#aaa" />
    <rect x="520" y="710" width="350" height="20" fill="#aaa" />
    <rect x="520" y="740" width="100" height="20" fill="#aaa" />

    <rect x="900" y="370" width="350" height="250" fill="#ccc" />
    <rect x="900" y="640" width="350" height="50" fill="#aaa" />
    <rect x="900" y="710" width="350" height="20" fill="#aaa" />
    <rect x="900" y="740" width="100" height="20" fill="#aaa" />

    <!-- Newsletter -->
    <rect x="120" y="1000" width="1200" height="200" fill="#e0e0e0" />
    <rect x="140" y="1020" width="800" height="40" fill="#aaa" />
    <rect x="140" y="1080" width="600" height="20" fill="#aaa" />
    <rect x="140" y="1120" width="400" height="40" fill="#ccc" />
    <rect x="560" y="1120" width="120" height="40" fill="#ccc" />

    <!-- Footer -->
    <rect x="0" y="1300" width="1440" height="96" fill="#f0f0f0" />
    <rect x="32" y="1320" width="200" height="20" fill="#aaa" />
    <rect x="1200" y="1320" width="60" height="20" fill="#ccc" />
    <rect x="1280" y="1320" width="80" height="20" fill="#ccc" />
    <rect x="1380" y="1320" width="60" height="20" fill="#ccc" />
</svg>