
        <svg xmlns="http://www.w3.org/2000/svg" xmlns:xlink="http://www.w3.org/1999/xlink" version="1.1" width="3161.94639802319" 
        height="528.6822007533033" viewBox="0 0 3161.94639802319 528.6822007533033">
			<rect fill="#000000" width="3161.94639802319" height="528.6822007533033"/>
			<g transform="scale(8.097319901159477) translate(10, 10)">
				<defs id="SvgjsDefs1285"></defs><g id="SvgjsG1286" featureKey="symbolFeature-0" transform="matrix(0.3834413874313181,0,0,0.3834413874313181,-2.095123827224778,2.8876216467647593)" fill="#ffffff"><path xmlns="http://www.w3.org/2000/svg" fill-rule="evenodd" clip-rule="evenodd" d="M50.459,95.503c-2.519,0-4.975-0.259-7.383-0.655l2.064-5.143  c1.744,0.236,3.511,0.399,5.319,0.399c2.501,0,4.94-0.261,7.313-0.703l-5.998-6.497h-8.514h-1.8h-1.8v-5.398h-5.899  c-0.623,1.07-1.771,1.8-3.099,1.8c-1.988,0-3.601-1.612-3.601-3.601s1.612-3.6,3.601-3.6c1.329,0,2.477,0.728,3.099,1.8h5.899v-1.8  v-3.601h3.6H61.26v0.77l4.416,4.784c0.315-0.09,0.641-0.153,0.983-0.153c1.988,0,3.6,1.612,3.6,3.601c0,1.987-1.611,3.598-3.6,3.598  s-3.599-1.61-3.599-3.598c0-0.296,0.044-0.579,0.11-0.854l-4.197-4.547H43.261v7.2H54.06v0.768l7.725,8.366  c6.576-1.96,12.414-5.601,17.071-10.395l-5.483-5.939H72.06V55.081l-5.435-5.883c-1.503,1.309-3.101,2.702-4.651,4.053  c-0.299,0.263-0.893,0.779-0.893,0.779l-1.621,0.024v0.051h-7.699c-0.623,1.072-1.771,1.801-3.1,1.801c-1.988,0-3.6-1.612-3.6-3.601  s1.612-3.599,3.6-3.599c1.329,0,2.477,0.728,3.1,1.8h7.699v0.393l10.799-9.623V27.107h-7.198v7.7  c1.07,0.623,1.798,1.771,1.798,3.099c0,1.988-1.61,3.601-3.599,3.601c-1.987,0-3.6-1.612-3.6-3.601c0-1.329,0.728-2.477,1.8-3.099  v-7.7v-1.8v-1.8h10.799v-7.183c-1.426-0.825-2.89-1.593-4.421-2.238c-0.573,0.264-1.206,0.422-1.879,0.422  c-2.484,0-4.499-2.015-4.499-4.5c0-2.484,2.015-4.499,4.499-4.499c2.243,0,4.087,1.644,4.428,3.788  c15.918,6.93,27.07,22.741,27.07,41.209C95.457,75.357,75.312,95.503,50.459,95.503z M81.058,52.306  c-1.988,0-3.599-1.61-3.599-3.599c0-1.329,0.729-2.477,1.799-3.101V30.708h1.8h1.801h1.87c-2.753-4.731-6.471-8.829-10.869-12.054  v26.453h-2.542c-0.584,0.508-1.25,1.09-1.978,1.723l6.525,7.069l-0.271,0.207h0.064v5.4h2.3c0.622-1.072,1.77-1.8,3.099-1.8  c1.988,0,3.601,1.612,3.601,3.601c0,1.987-1.612,3.6-3.601,3.6c-1.329,0-2.477-0.729-3.099-1.8h-2.3v6.168l5.598,6.063  c5.489-6.791,8.802-15.415,8.802-24.831c0-5.783-1.266-11.257-3.498-16.199h-3.702v11.298c1.072,0.625,1.8,1.772,1.8,3.101  C84.658,50.695,83.046,52.306,81.058,52.306z M50.459,10.908c-1.214,0-2.412,0.076-3.598,0.183v11.386l4.416,4.784  c0.314-0.09,0.64-0.153,0.982-0.153c1.988,0,3.601,1.612,3.601,3.601c0,1.988-1.612,3.6-3.601,3.6s-3.599-1.612-3.599-3.6  c0-0.295,0.044-0.579,0.111-0.853l-2.535-2.748h-1.918l-6.35,5.536l4.86,5.263h0.431v0.468l0.018,0.02l-0.018,0.016v22.897H61.76  c0.622-1.073,1.77-1.801,3.099-1.801c1.988,0,3.601,1.612,3.601,3.601s-1.612,3.599-3.601,3.599c-1.329,0-2.477-0.729-3.099-1.799  H43.261h-1.8h-1.8V39.782L23.152,21.899c-1,0.953-1.942,1.963-2.839,3.015L35.63,41.507h0.431v0.467l0.018,0.02l-0.018,0.016v21.097  v3.599h-3.599h-9h-1.798h-1.8v-8.999h-8.327c2.744,14.895,13.823,26.857,28.229,30.896l-2.025,5.049  C19.088,88.158,5.464,70.936,5.464,50.507c0-24.852,20.146-44.997,44.996-44.997c2.447,0,4.831,0.248,7.172,0.624l-2.062,5.142  C53.893,11.06,52.196,10.908,50.459,10.908z M18.068,27.79c-4.534,6.425-7.206,14.251-7.206,22.717c0,1.214,0.063,2.412,0.171,3.599  h12.428v1.801v1.8v5.4h9V43.382l-5.627-6.095l-5.231,7.245c0.031,0.188,0.06,0.378,0.06,0.575c0,1.988-1.612,3.6-3.6,3.6  s-3.6-1.612-3.6-3.6s1.612-3.6,3.6-3.6c0.401,0,0.779,0.081,1.139,0.202l5.142-7.12L18.068,27.79z M43.261,11.594  c-6.497,1.195-12.418,3.998-17.389,7.942l9.656,10.461l7.733-6.742V11.594z"></path></g><g id="SvgjsG1287" featureKey="nameFeature-0" transform="matrix(1.1723611898618147,0,0,1.1723611898618147,51.267200835540415,-13.006407433884979)" fill="#ffffff"><path d="M14.141 19.98 c5.0977 0 9.2969 3.8672 9.2969 10.215 c0 6.3867 -4.1992 10.254 -9.2969 10.254 c-2.8125 0 -5.2734 -1.3086 -6.4648 -3.4375 l0 12.715 l-4.4922 0 l0 -29.375 l4.2969 0 l0.11719 3.2031 c1.1719 -2.2461 3.6719 -3.5742 6.543 -3.5742 z M13.164 36.6406 c3.1836 0 5.7813 -2.4219 5.7813 -6.4453 c0 -4.0039 -2.5977 -6.4063 -5.7813 -6.4063 c-3.2813 0 -5.8398 2.6563 -5.8398 6.4063 c0 3.7891 2.5586 6.4453 5.8398 6.4453 z M49.83240625 29.844 l-0.058594 1.1328 l-14.941 0 c0.17578 3.9063 2.6953 5.7813 5.6836 5.7813 c2.1875 0 3.9648 -1.1133 4.8633 -3.0859 l4.1016 0.70313 c-1.3672 3.7891 -4.7656 5.9961 -8.9258 5.9961 c-6.0352 0 -10.137 -3.75 -10.137 -10.195 s4.1992 -10.215 10 -10.215 c5.4102 0 9.3945 3.1641 9.4141 9.8828 z M40.43740625 23.301 c-2.7539 0 -4.7852 1.3281 -5.4102 4.3164 l10.293 0 c-0.35156 -2.9102 -2.2852 -4.3164 -4.8828 -4.3164 z M68.82440625 19.98 c4.3945 0 7.0703 2.4219 7.0703 6.7969 l0 13.223 l-4.5313 0 l0 -12.246 c0 -2.9688 -1.7969 -4.1016 -3.8672 -4.1016 c-2.4805 0 -4.6094 1.4063 -4.6289 5.0586 l0 11.289 l-4.4922 0 l0 -19.648 l4.4922 0 l0 2.3242 c1.3086 -1.6992 3.3984 -2.6953 5.957 -2.6953 z M92.4258125 40 c-3.5156 0 -5.625 -2.0703 -5.625 -5.7422 l0 -10.391 l-3.9258 0 l0 -3.5156 l1.3477 0 c2.0703 0 3.0273 -0.82031 3.0273 -3.3789 l0 -3.0469 l4.1016 0 l0 6.4258 l4.2773 0 l0 3.5156 l-4.2773 0 l0 9.9219 c0 1.8359 0.99609 2.7344 2.5 2.7344 l1.7773 0 l0 3.4766 l-3.2031 0 z M121.84803124999999 29.844 l-0.058594 1.1328 l-14.941 0 c0.17578 3.9063 2.6953 5.7813 5.6836 5.7813 c2.1875 0 3.9648 -1.1133 4.8633 -3.0859 l4.1016 0.70313 c-1.3672 3.7891 -4.7656 5.9961 -8.9258 5.9961 c-6.0352 0 -10.137 -3.75 -10.137 -10.195 s4.1992 -10.215 10 -10.215 c5.4102 0 9.3945 3.1641 9.4141 9.8828 z M112.45303125 23.301 c-2.7539 0 -4.7852 1.3281 -5.4102 4.3164 l10.293 0 c-0.35156 -2.9102 -2.2852 -4.3164 -4.8828 -4.3164 z M138.90603125 40.35156 c-5.8984 0 -10.176 -4.0625 -10.176 -10.195 c0 -6.1133 4.2773 -10.176 10.176 -10.176 c4.668 0 8.2422 2.4805 9.3164 6.8555 l-4.1797 0.54688 c-0.76172 -2.5 -2.6953 -3.7891 -5.1758 -3.7891 c-3.2813 0 -5.6445 2.5977 -5.6445 6.5625 s2.3633 6.5625 5.6445 6.5625 c2.4805 0 4.4141 -1.2695 5.1758 -3.7695 l4.1797 0.52734 c-1.0742 4.375 -4.7266 6.875 -9.3164 6.875 z M165.20359375 40.37109 c-5.9375 0 -10.332 -3.8477 -10.332 -10.215 c0 -6.3086 4.3555 -10.176 10.332 -10.176 c5.9961 0 10.352 3.8672 10.352 10.176 c0 6.3672 -4.375 10.215 -10.352 10.215 z M165.16359375 36.7383 c3.418 0 5.918 -2.5977 5.918 -6.582 c0 -3.9648 -2.5 -6.5625 -5.918 -6.5625 c-3.3594 0 -5.8203 2.5977 -5.8203 6.5625 c0 3.9844 2.4609 6.582 5.8203 6.582 z M190.6211 40.37109 c-4.2773 0 -7.5391 -1.8164 -8.2031 -5.4492 l3.8086 -1.0742 c0.52734 2.2266 2.1875 3.3008 4.3945 3.3008 c1.6211 0 3.3789 -0.58594 3.3398 -2.4805 c-0.039063 -2.2266 -2.8906 -2.5 -6.0352 -3.5547 c-2.5391 -0.82031 -5 -1.9727 -5 -5.3906 c0 -3.9453 3.2617 -5.7227 7.3242 -5.7227 c3.7109 0 6.7969 1.5039 7.4805 5.1563 l-3.5547 0.83984 c-0.52734 -2.0703 -2.0898 -2.8906 -3.9063 -2.8906 c-1.6211 0 -3.2031 0.625 -3.2031 2.2461 c0 1.875 2.3047 2.2656 4.8047 2.9297 c3.0664 0.80078 6.4258 1.9727 6.4258 6.1328 c0 4.3555 -3.6328 5.957 -7.6758 5.957 z M213.53909375 40 c-3.5156 0 -5.625 -2.0703 -5.625 -5.7422 l0 -10.391 l-3.9258 0 l0 -3.5156 l1.3477 0 c2.0703 0 3.0273 -0.82031 3.0273 -3.3789 l0 -3.0469 l4.1016 0 l0 6.4258 l4.2773 0 l0 3.5156 l-4.2773 0 l0 9.9219 c0 1.8359 0.99609 2.7344 2.5 2.7344 l1.7773 0 l0 3.4766 l-3.2031 0 z M228.3711125 40.39063 c-1.4844 0 -2.7539 -1.2305 -2.7539 -2.7344 s1.2695 -2.7539 2.7539 -2.7539 c1.5039 0 2.7539 1.25 2.7539 2.7539 s-1.25 2.7344 -2.7539 2.7344 z M246.38671875 40.37109 c-3.1836 0 -6.0547 -1.5234 -6.0547 -5.3516 c0 -4.1992 3.418 -5.5078 7.5195 -6.25 l2.9688 -0.54688 c1.2891 -0.25391 1.8164 -0.83984 1.8164 -1.7773 c0 -2.4219 -1.8945 -3.2227 -3.8477 -3.2227 c-2.1289 0 -3.8672 0.9375 -4.1602 3.457 l-4.043 -0.74219 c0.68359 -4.0625 3.6133 -5.9375 8.4766 -5.9375 c3.9258 0 7.8906 1.4063 7.8906 6.9336 l0 7.6172 c0 1.8555 0.48828 2.3828 1.8555 2.3828 l0.3125 0 l0 3.0664 l-2.1289 0 c-2.207 0 -3.5352 -0.78125 -3.9844 -2.5977 l-0.21484 0 c-1.5234 2.1484 -4.043 2.9688 -6.4063 2.9688 z M247.44141875 36.8359 c3.0859 0 5.4883 -2.2852 5.4883 -5.8789 l-5.0195 1.1133 c-2.0703 0.39063 -3.2227 1.0938 -3.2227 2.5781 c0 1.543 1.2109 2.1875 2.7539 2.1875 z M269.53908125 16.602 c-1.5234 0 -2.7734 -1.25 -2.7734 -2.7539 c0 -1.5234 1.25 -2.7539 2.7734 -2.7539 c1.4844 0 2.7539 1.2305 2.7539 2.7539 c0 1.5039 -1.2695 2.7539 -2.7539 2.7539 z M267.23438125 40 l0 -19.648 l4.5117 0 l0 19.648 l-4.5117 0 z"></path></g>
			</g>
		</svg>
	